<svg xmlns="http://www.w3.org/2000/svg" viewBox="0 0 545 356.8"><path d="M390.87,5.11A122.66,122.66,0,1,1,217.4,178.58l44.72-44.71a59.43,59.43,0,0,0,84-84Z" style="fill:#ee7221"/><path d="M327.6,68.38,282.88,113.1a59.43,59.43,0,1,0-84,84l-44.71,44.72A122.67,122.67,0,1,1,327.6,68.38Z" style="fill:#ee7221"/><path d="M93.62,337.89q-12.27-11.62-12.27-33.5T93.7,270.77Q106,259,128,259t34.18,11.43q12.26,11.44,12.26,32.79v4.54a4.77,4.77,0,0,1-4.94,4.94h-60q.81,9.79,5.62,14.26t15.42,4.46q10.59,0,14.5-4.78a12.2,12.2,0,0,1,9.64-4.86h11.87a4.77,4.77,0,0,1,4.94,4.94q0,22.86-43.58,22.78Q105.89,349.52,93.62,337.89Zm15.69-42h37.05q-.8-18.81-18.44-18.8T109.31,295.91Z" style="fill:#3c3c3b"/><path d="M200.44,284.75Q200.44,259,242,259q43.65,0,43.66,22.87a4.78,4.78,0,0,1-1.36,3.46,4.66,4.66,0,0,1-3.5,1.4H268.88a12,12,0,0,1-9.64-4.82q-3.92-4.83-15.38-4.82-15.78,0-15.77,7.64,0,3.58,6.17,6a92.94,92.94,0,0,0,15.06,4.18A172.83,172.83,0,0,1,267,299.49a36.67,36.67,0,0,1,15,8.89,20.72,20.72,0,0,1,6.17,15.41q0,25.74-43.81,25.73T200.6,326.74a4.76,4.76,0,0,1,4.94-4.94h11.87a12,12,0,0,1,9.64,4.82q3.9,4.81,15.38,4.82,18.24,0,18.24-7.65,0-3.59-6.17-6a97.86,97.86,0,0,0-15.1-4.27q-8.93-1.86-17.73-4.62a36.5,36.5,0,0,1-15-8.88A20.63,20.63,0,0,1,200.44,284.75Z" style="fill:#3c3c3b"/><path d="M319.29,343.07V265.55a4.79,4.79,0,0,1,1.39-3.54,4.72,4.72,0,0,1,3.47-1.4H342a4.67,4.67,0,0,1,3.51,1.4,4.88,4.88,0,0,1,1.35,3.54v5A52,52,0,0,1,358.13,262a27.76,27.76,0,0,1,13.34-3q18.57,0,28.12,15.3Q414.41,258.95,430,259t24.62,9.4q9,9.36,9,29v45.73a4.64,4.64,0,0,1-4.86,4.86H441a4.79,4.79,0,0,1-3.54-1.39,4.72,4.72,0,0,1-1.4-3.47V297.34q0-19.12-13.86-19-8.45,0-17.45,12.19a49.3,49.3,0,0,1,.48,6.85v45.73a4.68,4.68,0,0,1-1.39,3.51,4.8,4.8,0,0,1-3.47,1.35H382.63a4.8,4.8,0,0,1-3.55-1.39,4.71,4.71,0,0,1-1.39-3.47V297.34q0-19.12-13.87-19-8.83,0-17,11.39v53.38a4.68,4.68,0,0,1-1.39,3.51,4.8,4.8,0,0,1-3.47,1.35H324.15a4.63,4.63,0,0,1-4.86-4.86Z" style="fill:#3c3c3b"/></svg>